# xmcd
#
# Track frame offsets: 
#        150
#        13374
#        29270
#        40724
#        56293
#        72502
#        86765
#        107154
#        118896
#        134452
#        146076
#        163160
#        176208
#
# Disc length: 2534 seconds
#
# Revision: 0
# Processed by: cddbd v1.5.2PL0 Copyright (c) Steve Scherf et al.
# Submitted via: ExactAudioCopy v0.90b4
#
DISCID=c209e40d
DTITLE=Rick Hayes - Fly By Night
DYEAR=2008
DGENRE=Bluegrass
TTITLE0=Fly By Night
TTITLE1=Oh What A Silent Night
TTITLE2=Marty Stuart Visits The Moon
TTITLE3=Sweet Mountain Darlin'
TTITLE4=Flora, Lily of the West
TTITLE5=Little Lies
TTITLE6=Footsteps So Near
TTITLE7=Two Hours Down
TTITLE8=Cliffs Down By The Sea
TTITLE9=King of Broken Hearts
TTITLE10=New Whitehouse Blues
TTITLE11=Broken Hearted Lovers Ride
TTITLE12=Jacob's Ladder
EXTD=
EXTT0=
EXTT1=
EXTT2=
EXTT3=
EXTT4=
EXTT5=
EXTT6=
EXTT7=
EXTT8=
EXTT9=
EXTT10=
EXTT11=
EXTT12=
PLAYORDER=
